<?xml version="1.0" encoding="UTF-8"?>
<svg version="1.1" xmlns="http://www.w3.org/2000/svg" width="256" height="256">
<path d="M0 0 C0.83289551 0.45665039 1.66579102 0.91330078 2.52392578 1.38378906 C3.47251465 1.90030029 4.42110352 2.41681152 5.3984375 2.94897461 C6.91848389 3.79069214 6.91848389 3.79069214 8.46923828 4.64941406 C9.52771973 5.22925049 10.58620117 5.80908691 11.67675781 6.40649414 C20.86937748 11.45814062 30.00220443 16.61546699 39.12158203 21.79785156 C46.91365717 26.22318566 54.75483202 30.5585858 62.59423828 34.89941406 C62.59423828 41.16941406 62.59423828 47.43941406 62.59423828 53.89941406 C61.27423828 54.22941406 59.95423828 54.55941406 58.59423828 54.89941406 C58.26423828 54.56941406 57.93423828 54.23941406 57.59423828 53.89941406 C57.61164063 52.43955078 57.61164063 52.43955078 57.62939453 50.95019531 C57.63841797 49.7165625 57.64744141 48.48292969 57.65673828 47.21191406 C57.68896484 45.99117187 57.72119141 44.77042969 57.75439453 43.51269531 C56.54240558 38.37423151 56.54240558 38.37423151 46.59423828 33.89941406 C46.26423828 65.57941406 45.93423828 97.25941406 45.59423828 129.89941406 C40.25521706 130.96721831 39.70081773 130.87926111 35.23486328 128.46972656 C33.6821875 127.64601562 33.6821875 127.64601562 32.09814453 126.80566406 C31.02435547 126.21785156 29.95056641 125.63003906 28.84423828 125.02441406 C27.81685547 124.47527344 26.78947266 123.92613281 25.73095703 123.36035156 C22.34675349 121.54990648 18.97071505 119.72422903 15.59423828 117.89941406 C9.98423828 114.92941406 4.37423828 111.95941406 -1.40576172 108.89941406 C-1.40576172 128.69941406 -1.40576172 148.49941406 -1.40576172 168.89941406 C18.78043248 158.11115926 18.78043248 158.11115926 38.90673828 147.21191406 C39.7873291 146.73206055 40.66791992 146.25220703 41.57519531 145.7578125 C45.27027681 143.73865014 48.94427916 141.70078483 52.57470703 139.56738281 C55.59423828 137.89941406 55.59423828 137.89941406 57.59423828 137.89941406 C57.59423828 115.78941406 57.59423828 93.67941406 57.59423828 70.89941406 C59.24423828 70.89941406 60.89423828 70.89941406 62.59423828 70.89941406 C62.59423828 94.32941406 62.59423828 117.75941406 62.59423828 141.89941406 C35.06642036 156.91458747 35.06642036 156.91458747 25.49707031 162.06005859 C20.57581279 164.71314098 15.68603244 167.40435847 10.84423828 170.20019531 C9.93689941 170.71831787 9.02956055 171.23644043 8.09472656 171.77026367 C6.39239568 172.74553432 4.69747425 173.73389964 3.01171875 174.73754883 C1.87307373 175.38614868 1.87307373 175.38614868 0.71142578 176.04785156 C0.05770996 176.43118652 -0.59600586 176.81452148 -1.26953125 177.20947266 C-5.18343004 178.47355014 -8.4366665 177.32945777 -12.09277344 175.70703125 C-12.99785645 175.20848633 -13.90293945 174.70994141 -14.83544922 174.19628906 C-15.86637695 173.63441895 -16.89730469 173.07254883 -17.95947266 172.49365234 C-19.05549805 171.88505371 -20.15152344 171.27645508 -21.28076172 170.64941406 C-23.02300026 169.6957289 -24.76524316 168.74205153 -26.5078125 167.78897095 C-28.29855358 166.80800991 -30.08716039 165.82324297 -31.87548828 164.83789062 C-35.22731433 162.99368556 -38.59190569 161.17386832 -41.96044922 159.36035156 C-43.00346191 158.79864258 -44.04647461 158.23693359 -45.12109375 157.65820312 C-47.06725463 156.61043896 -49.01353317 155.56289329 -50.95996094 154.515625 C-58.51769152 150.42796513 -65.93856794 146.16638194 -73.40576172 141.89941406 C-73.40576172 106.58941406 -73.40576172 71.27941406 -73.40576172 34.89941406 C-66.14576172 30.93941406 -58.88576172 26.97941406 -51.40576172 22.89941406 C-47.5435168 20.74461398 -43.68744255 18.58532081 -39.84326172 16.39941406 C-38.91271973 15.87460449 -37.98217773 15.34979492 -37.0234375 14.80908203 C-32.13911591 12.0485218 -27.28559705 9.24540444 -22.46435547 6.37597656 C-21.50924072 5.81330078 -20.55412598 5.250625 -19.57006836 4.67089844 C-17.75336554 3.59852699 -15.94351716 2.51442996 -14.1418457 1.41699219 C-13.32917236 0.93939453 -12.51649902 0.46179687 -11.67919922 -0.03027344 C-10.9719873 -0.45550293 -10.26477539 -0.88073242 -9.53613281 -1.31884766 C-5.94621358 -2.63616617 -3.36967195 -1.54155481 0 0 Z M-16.55810547 10.18847656 C-17.48025597 10.69983658 -17.48025597 10.69983658 -18.42103577 11.2215271 C-20.39733656 12.31854066 -22.37035097 13.42131741 -24.34326172 14.52441406 C-25.63796338 15.24486203 -26.93288302 15.96491842 -28.22802734 16.68457031 C-30.13564636 17.74467144 -32.04307349 18.80510188 -33.94955444 19.86724854 C-39.41642241 22.91209319 -44.90534878 25.91558136 -50.40576172 28.89941406 C-50.40576172 31.86941406 -50.40576172 34.83941406 -50.40576172 37.89941406 C-40.08887923 43.39142656 -29.73064492 48.78916178 -19.28076172 54.02441406 C-18.31509277 54.50950439 -17.34942383 54.99459473 -16.35449219 55.49438477 C-15.46133301 55.93999756 -14.56817383 56.38561035 -13.64794922 56.84472656 C-12.85243652 57.24191895 -12.05692383 57.63911133 -11.23730469 58.04833984 C-9.59121993 58.96964782 -9.59121993 58.96964782 -8.40576172 58.89941406 C-8.40576172 41.73941406 -8.40576172 24.57941406 -8.40576172 6.89941406 C-11.59406285 6.89941406 -13.79709769 8.65002993 -16.55810547 10.18847656 Z M-2.40576172 6.89941406 C-2.40576172 24.05941406 -2.40576172 41.21941406 -2.40576172 58.89941406 C13.21731455 51.51746067 13.21731455 51.51746067 28.71923828 43.89941406 C30.15203125 43.18591797 30.15203125 43.18591797 31.61376953 42.45800781 C32.51740234 42.00554687 33.42103516 41.55308594 34.35205078 41.08691406 C35.14756348 40.68859375 35.94307617 40.29027344 36.76269531 39.87988281 C38.55720704 39.03300526 38.55720704 39.03300526 39.59423828 37.89941406 C39.66603792 36.38013368 39.67815835 34.85773925 39.65673828 33.33691406 C39.64771484 32.510625 39.63869141 31.68433594 39.62939453 30.83300781 C39.61779297 30.19492188 39.60619141 29.55683594 39.59423828 28.89941406 C38.87993652 28.51720703 38.16563477 28.135 37.4296875 27.74121094 C34.10846183 25.96261353 30.78852211 24.18163172 27.46923828 22.39941406 C26.87554443 22.08083435 26.28185059 21.76225464 25.67016602 21.434021 C17.67832937 17.14244055 9.74577357 12.77618865 1.93798828 8.15722656 C-0.25614929 6.74178962 -0.25614929 6.74178962 -2.40576172 6.89941406 Z M-62.40576172 35.83691406 C-63.31326172 36.3821875 -64.22076172 36.92746094 -65.15576172 37.48925781 C-67.29254136 38.71164577 -67.29254136 38.71164577 -68.40576172 39.89941406 C-68.47756136 41.41869444 -68.48968179 42.94108888 -68.46826172 44.46191406 C-68.45923828 45.28820312 -68.45021484 46.11449219 -68.44091797 46.96582031 C-68.42931641 47.60390625 -68.41771484 48.24199219 -68.40576172 48.89941406 C-66.78326231 49.73760564 -65.15767675 50.56982566 -63.53076172 51.39941406 C-62.17337891 52.09550781 -62.17337891 52.09550781 -60.78857422 52.80566406 C-58.53979313 54.03846995 -58.53979313 54.03846995 -56.40576172 53.89941406 C-56.40576172 46.96941406 -56.40576172 40.03941406 -56.40576172 32.89941406 C-58.51980716 32.89941406 -60.67069396 34.78946549 -62.40576172 35.83691406 Z M-50.40576172 44.89941406 C-50.40576172 49.18941406 -50.40576172 53.47941406 -50.40576172 57.89941406 C-45.71275124 60.27079256 -41.01704374 62.6367146 -36.31884766 64.99780273 C-34.72370908 65.80037499 -33.12929399 66.60438699 -31.53564453 67.40991211 C-29.23386146 68.57304717 -26.92945436 69.73083657 -24.62451172 70.88769531 C-23.92209351 71.2440657 -23.21967529 71.6004361 -22.49597168 71.96760559 C-17.89078873 74.27070851 -13.2537953 76.16220203 -8.40576172 77.89941406 C-8.40576172 73.93941406 -8.40576172 69.97941406 -8.40576172 65.89941406 C-12.86562398 63.54970378 -17.32632647 61.20162222 -21.78857422 58.85644531 C-25.62118643 56.84138146 -29.44846585 54.81657887 -33.27294922 52.78613281 C-35.17135759 51.78217148 -37.06979438 50.77826388 -38.96826172 49.77441406 C-39.87793701 49.28932373 -40.7876123 48.8042334 -41.72485352 48.30444336 C-42.56959229 47.85883057 -43.41433105 47.41321777 -44.28466797 46.95410156 C-45.03304932 46.55690918 -45.78143066 46.1597168 -46.55249023 45.75048828 C-48.36878916 44.76030523 -48.36878916 44.76030523 -50.40576172 44.89941406 Z M33.80297852 46.71948242 C33.02554794 47.11666977 32.24811737 47.51385712 31.4471283 47.92308044 C30.60751053 48.35741898 29.76789276 48.79175751 28.90283203 49.23925781 C28.04238785 49.68080704 27.18194366 50.12235626 26.29542542 50.57728577 C24.47452905 51.51274243 22.65464483 52.45017148 20.83569336 53.3894043 C18.04205547 54.83158793 15.24519876 56.26736568 12.44775391 57.70214844 C10.68258646 58.60997544 8.91760608 59.51816629 7.15283203 60.42675781 C6.31119003 60.85907211 5.46954803 61.29138641 4.60240173 61.73680115 C3.82812332 62.13714066 3.05384491 62.53748016 2.25610352 62.94995117 C1.57152573 63.30302841 0.88694794 63.65610565 0.18162537 64.0198822 C-1.39805983 64.79977573 -1.39805983 64.79977573 -2.40576172 65.89941406 C-2.47835118 68.08580859 -2.48949955 70.27441795 -2.46826172 72.46191406 C-2.45923828 73.65945312 -2.45021484 74.85699219 -2.44091797 76.09082031 C-2.42931641 77.01765625 -2.41771484 77.94449219 -2.40576172 78.89941406 C8.02954181 74.01916241 18.41100322 69.04336067 28.71923828 63.89941406 C30.1677417 63.17854614 30.1677417 63.17854614 31.64550781 62.44311523 C32.53866699 61.99556885 33.43182617 61.54802246 34.35205078 61.08691406 C35.14756348 60.68859375 35.94307617 60.29027344 36.76269531 59.87988281 C38.55720704 59.03300526 38.55720704 59.03300526 39.59423828 57.89941406 C39.66682774 55.71301953 39.67797611 53.52441017 39.65673828 51.33691406 C39.64771484 50.139375 39.63869141 48.94183594 39.62939453 47.70800781 C39.61779297 46.78117187 39.60619141 45.85433594 39.59423828 44.89941406 C37.15153252 44.89941406 35.97365633 45.60375489 33.80297852 46.71948242 Z M-68.40576172 55.89941406 C-68.40576172 82.95941406 -68.40576172 110.01941406 -68.40576172 137.89941406 C-54.54576172 145.32441406 -54.54576172 145.32441406 -40.40576172 152.89941406 C-25.6835395 160.88552517 -25.6835395 160.88552517 -19.07275391 164.48999023 C-15.54795209 166.35274023 -11.97160696 168.11649144 -8.40576172 169.89941406 C-8.40576172 149.43941406 -8.40576172 128.97941406 -8.40576172 107.89941406 C-14.01576172 110.53941406 -19.62576172 113.17941406 -25.40576172 115.89941406 C-26.39576172 115.56941406 -27.38576172 115.23941406 -28.40576172 114.89941406 C-28.40576172 113.90941406 -28.40576172 112.91941406 -28.40576172 111.89941406 C-25.0450341 110.01846326 -21.66527521 108.17466907 -18.28076172 106.33691406 C-17.32943359 105.80388672 -16.37810547 105.27085937 -15.39794922 104.72167969 C-14.00576172 103.97241211 -14.00576172 103.97241211 -12.58544922 103.20800781 C-11.73708496 102.74193115 -10.8887207 102.27585449 -10.01464844 101.7956543 C-5.5747301 100.27039319 -2.44046532 101.44151325 1.74707031 103.29467773 C3.40778564 104.17216675 3.40778564 104.17216675 5.10205078 105.06738281 C5.70878632 105.3846785 6.31552185 105.70197418 6.94064331 106.02888489 C8.87106598 107.04042488 10.79523962 108.06321709 12.71923828 109.08691406 C14.62307422 110.09020152 16.52815488 111.09108737 18.43356323 112.09138489 C20.17941755 113.00946766 21.92233103 113.93313661 23.66503906 114.85717773 C28.94279672 117.60033933 34.27411336 120.2393516 39.59423828 122.89941406 C39.59423828 103.75941406 39.59423828 84.61941406 39.59423828 64.89941406 C34.36791652 66.63742083 34.36791652 66.63742083 29.52001953 68.90234375 C28.40856567 69.48239166 28.40856567 69.48239166 27.2746582 70.07415771 C26.49324463 70.48571106 25.71183105 70.8972644 24.90673828 71.32128906 C23.2223343 72.1907322 21.5374228 73.05919266 19.85205078 73.92675781 C17.21375428 75.28923755 14.57913572 76.6573785 11.95263672 78.04248047 C9.40474495 79.38300061 6.84487958 80.69771725 4.28173828 82.00878906 C3.50032471 82.42843933 2.71891113 82.8480896 1.91381836 83.28045654 C-3.54876827 86.03832926 -3.54876827 86.03832926 -7.39697266 85.41455078 C-8.38987305 84.91455566 -9.38277344 84.41456055 -10.40576172 83.89941406 C-11.05379761 83.59201294 -11.7018335 83.28461182 -12.36950684 82.96789551 C-14.67737216 81.86417891 -16.95538538 80.7109167 -19.23388672 79.54785156 C-20.06410339 79.1289566 -20.89432007 78.71006165 -21.74969482 78.2784729 C-24.3870225 76.94764433 -27.02168729 75.61166895 -29.65576172 74.27441406 C-33.13786262 72.50685015 -36.62253056 70.74450456 -40.10888672 68.98535156 C-40.91094543 68.57602386 -41.71300415 68.16669617 -42.53936768 67.7449646 C-43.28063904 67.3710257 -44.0219104 66.99708679 -44.78564453 66.61181641 C-45.438172 66.28031586 -46.09069946 65.94881531 -46.76300049 65.60726929 C-48.41375591 64.76750733 -48.41375591 64.76750733 -50.40576172 64.89941406 C-50.40576172 84.03941406 -50.40576172 103.17941406 -50.40576172 122.89941406 C-47.93076172 121.90941406 -47.93076172 121.90941406 -45.40576172 120.89941406 C-44.41576172 120.89941406 -43.42576172 120.89941406 -42.40576172 120.89941406 C-42.40576172 123.14941406 -42.40576172 123.14941406 -43.40576172 125.89941406 C-47.3287011 128.70920817 -50.57330328 129.89941406 -55.40576172 129.89941406 C-55.73576172 107.12941406 -56.06576172 84.35941406 -56.40576172 60.89941406 C-62.17702063 57.43045127 -62.17702063 57.43045127 -68.40576172 55.89941406 Z " fill="#142B57" transform="translate(133.40576171875,40.1005859375)"/>
</svg>
