<svg width="216" height="71" viewBox="0 0 216 71" fill="none" xmlns="http://www.w3.org/2000/svg">
<path d="M91.9416 16.6185C89.4567 15.4623 86.4799 14.8842 83.0061 14.8842H68.0459V56.1185H77.235V44.409H83.0061C86.4799 44.409 89.4567 43.8308 91.9416 42.6746C94.4265 41.5183 96.3283 39.8651 97.6569 37.7149C98.9805 35.5698 99.6449 33.0392 99.6449 30.1232V29.2256C99.6449 26.2387 98.9805 23.6777 97.6569 21.5528C96.3283 19.4229 94.4265 17.7798 91.9416 16.6236V16.6185ZM89.5024 33.2319C88.9445 34.2614 88.1483 35.0525 87.1239 35.6154C86.0945 36.1732 84.8723 36.4572 83.4524 36.4572H77.235V22.846H83.4524C84.8723 22.846 86.0945 23.1199 87.1239 23.6574C88.1483 24.2 88.9445 24.981 89.5024 26.0105C90.0602 27.0399 90.3442 28.2621 90.3442 29.6821C90.3442 31.0259 90.0653 32.2126 89.5024 33.237V33.2319ZM122.471 26.2539C120.32 25.3563 117.678 24.91 114.544 24.91C113.459 24.91 112.303 24.9303 111.07 24.9658C109.838 25.0013 108.641 25.0571 107.485 25.1331C106.329 25.2092 105.32 25.2853 104.457 25.3563V32.9175C105.614 32.8414 106.902 32.7704 108.322 32.6944C109.742 32.6183 111.121 32.5625 112.47 32.527C113.814 32.4915 114.899 32.4712 115.721 32.4712C117.364 32.4712 118.561 32.8617 119.306 33.6478C120.052 34.4338 120.427 35.6103 120.427 37.1774V37.2889H114.879C112.151 37.2889 109.742 37.6338 107.652 38.3235C105.558 39.0132 103.935 40.0781 102.779 41.5183C101.623 42.9586 101.045 44.7944 101.045 47.0359C101.045 49.0897 101.511 50.8545 102.444 52.3302C103.377 53.806 104.676 54.9369 106.339 55.7178C108.002 56.5039 109.934 56.8944 112.135 56.8944C114.336 56.8944 116.066 56.5039 117.541 55.7178C119.017 54.9318 120.173 53.8111 121.015 52.3556C121.39 51.7065 121.695 50.9864 121.938 50.2054V56.1083H129.053V37.2839C129.053 34.444 128.495 32.1213 127.374 30.3109C126.254 28.5005 124.621 27.1464 122.471 26.2488V26.2539ZM120.427 44.7437C120.351 46.2752 120.052 47.472 119.529 48.329C119.007 49.1861 118.343 49.7946 117.541 50.1496C116.735 50.5046 115.832 50.6821 114.823 50.6821C113.256 50.6821 112.049 50.3017 111.207 49.536C110.365 48.7702 109.945 47.7712 109.945 46.5389C109.945 45.2305 110.365 44.196 111.207 43.4302C112.049 42.6644 113.251 42.2841 114.823 42.2841H120.427V44.7487V44.7437ZM153.76 25.4171L148.207 48.4406H147.086L140.255 25.4171H131.234L140.646 55.444H146.518L146.194 56.7879C145.93 57.7565 145.595 58.5222 145.185 59.0851C144.774 59.643 144.231 60.0487 143.562 60.2921C142.887 60.5355 142.066 60.6572 141.097 60.6572H134.713V68.2743H140.205C142.933 68.2743 145.18 67.9649 146.955 67.3513C148.729 66.7326 150.149 65.7183 151.214 64.2984C152.279 62.8784 153.111 60.9717 153.709 58.5831L162.28 25.4171H153.765H153.76Z" fill="white"/>
<path d="M173.163 15.2189L159.663 56.1134H168.852L172.088 45.976H189.173L192.495 56.1134H202.018L188.012 15.2189H173.168H173.163ZM174.517 38.3539L179.507 22.7243H181.556L186.673 38.3539H174.517ZM206.329 15.2189V56.1134H215.518V15.2189H206.329Z" fill="white"/>
<path d="M52.9996 22.1816C53.4865 22.136 53.8465 21.6948 53.8465 21.2029V15.376C53.8465 15.1732 53.7349 14.9805 53.5574 14.8841L28.0491 0.628834L26.9182 0L0.289061 14.8841C0.111567 14.9855 0 15.1732 0 15.376V56.159C0 56.3669 0.111567 56.5546 0.294132 56.656L26.6545 70.9315C26.8218 71.0228 27.0247 71.0228 27.192 70.9315L53.5524 56.656C53.7349 56.5596 53.8465 56.3669 53.8465 56.159V29.8798C53.8465 29.3879 53.4865 28.9518 52.9996 28.901C52.4367 28.8453 51.9651 29.2865 51.9651 29.8392V55.378L27.8665 68.4314V42.9129L45.9252 52.4316C46.3005 52.6294 46.7518 52.3556 46.7518 51.9347V24.981V13.241L51.9651 16.157V21.2536C51.9651 21.8013 52.4367 22.2425 52.9996 22.1918V22.1816ZM8.97611 12.1862L25.98 2.68269V24.4789L8.97611 15.8375V12.1811V12.1862ZM8.97611 17.9522L25.98 26.5936V32.0351L8.97611 23.6675V17.9522ZM1.88143 16.1519L7.09468 13.236V22.7395L1.88143 20.1734V16.1469V16.1519ZM44.8704 49.7439L27.8006 40.7475L26.9233 40.286L26.0459 40.7475L18.2311 44.8653C17.7646 45.1087 17.5922 45.6869 17.8457 46.1484C18.0942 46.5997 18.6571 46.767 19.1085 46.5287L25.9851 42.9028V68.4213L1.88143 55.373V22.2729L7.09468 24.839V51.9296C7.09468 52.3556 7.54602 52.6294 7.92129 52.4266L11.9935 50.2814C12.4601 50.038 12.6325 49.4599 12.3789 48.9984C12.1304 48.5471 11.5675 48.3797 11.1162 48.6181L8.97611 49.7439V25.9141L26.9233 34.8395L44.8704 25.9141V49.7439ZM44.8704 23.8095L27.8665 32.2684V26.5885L44.8704 17.9471V23.8095ZM44.8704 15.8375L27.8665 24.4789V2.68269L44.8704 12.1862V15.8426V15.8375Z" fill="white"/>
</svg>