<?xml version="1.0" encoding="UTF-8"?>
<svg id="Layer_1" data-name="Layer 1" xmlns="http://www.w3.org/2000/svg" viewBox="0 0 424.97 140">
  <defs>
    <style>
      .cls-1 {
        fill: #142b57;
      }
    </style>
  </defs>
  <path class="cls-1" d="M181.3,32.77c-4.9-2.28-10.77-3.42-17.62-3.42h-29.5V110.65h18.12v-23.09h11.38c6.85,0,12.72-1.14,17.62-3.42,4.9-2.28,8.65-5.54,11.27-9.78,2.61-4.23,3.92-9.22,3.92-14.97v-1.77c0-5.89-1.31-10.94-3.92-15.13-2.62-4.2-6.37-7.44-11.27-9.72Zm-4.81,32.75c-1.1,2.03-2.67,3.59-4.69,4.7-2.03,1.1-4.44,1.66-7.24,1.66h-12.26v-26.84h12.26c2.8,0,5.21,.54,7.24,1.6,2.02,1.07,3.59,2.61,4.69,4.64,1.1,2.03,1.66,4.44,1.66,7.24,0,2.65-.55,4.99-1.66,7.01Zm65.01-13.75c-4.24-1.77-9.45-2.65-15.63-2.65-2.14,0-4.42,.04-6.85,.11-2.43,.07-4.79,.18-7.07,.33-2.28,.15-4.27,.3-5.97,.44v14.91c2.28-.15,4.82-.29,7.62-.44,2.8-.15,5.52-.26,8.18-.33,2.65-.07,4.79-.11,6.41-.11,3.24,0,5.6,.77,7.07,2.32,1.47,1.55,2.21,3.87,2.21,6.96v.22h-10.94c-5.38,0-10.13,.68-14.25,2.04-4.13,1.36-7.33,3.46-9.61,6.3-2.28,2.84-3.42,6.46-3.42,10.88,0,4.05,.92,7.53,2.76,10.44,1.84,2.91,4.4,5.14,7.68,6.68,3.28,1.55,7.09,2.32,11.43,2.32s7.75-.77,10.66-2.32c2.91-1.55,5.19-3.76,6.85-6.63,.74-1.28,1.34-2.7,1.82-4.24v11.64h14.03v-37.12c0-5.6-1.1-10.18-3.31-13.75-2.21-3.57-5.43-6.24-9.67-8.01Zm-4.03,36.46c-.15,3.02-.74,5.38-1.77,7.07-1.03,1.69-2.34,2.89-3.92,3.59-1.59,.7-3.37,1.05-5.36,1.05-3.09,0-5.47-.75-7.13-2.26-1.66-1.51-2.49-3.48-2.49-5.91,0-2.58,.83-4.62,2.49-6.13,1.66-1.51,4.03-2.26,7.13-2.26h11.05v4.86Zm65.73-38.11l-10.95,45.4h-2.21l-13.47-45.4h-17.79l18.56,59.21h11.58l-.64,2.65c-.52,1.91-1.18,3.42-1.99,4.53-.81,1.1-1.88,1.9-3.2,2.38-1.33,.48-2.95,.72-4.86,.72h-12.59v15.02h10.83c5.38,0,9.81-.61,13.31-1.82,3.5-1.22,6.3-3.22,8.4-6.02,2.1-2.8,3.74-6.56,4.92-11.27l16.9-65.4h-16.79Z"/>
  <path class="cls-1" d="M341.46,30.01l-26.62,80.64h18.12l6.38-19.99h33.69l6.55,19.99h18.78l-27.62-80.64h-29.27Zm2.67,45.62l9.84-30.82h4.04l10.09,30.82h-23.97Zm62.72-45.62V110.65h18.12V30.01h-18.12Z"/>
  <path class="cls-1" d="M104.51,43.74c.96-.09,1.67-.96,1.67-1.93v-11.49c0-.4-.22-.78-.57-.97L55.32,1.24l-2.23-1.24h0L.57,29.35c-.35,.2-.57,.57-.57,.97V110.74c0,.41,.22,.78,.58,.98l51.98,28.15c.33,.18,.73,.18,1.06,0l51.98-28.15c.36-.19,.58-.57,.58-.98V58.91c0-.97-.71-1.83-1.67-1.93-1.11-.11-2.04,.76-2.04,1.85v50.36l-47.52,25.74v-50.32l35.61,18.77c.74,.39,1.63-.15,1.63-.98V49.25h0V26.1l10.28,5.75v10.05c0,1.08,.93,1.95,2.04,1.85ZM17.7,24.03L51.24,5.29V48.27L17.7,31.23v-7.21Zm0,11.37l33.53,17.04v10.73L17.7,46.67v-11.27Zm-13.99-3.55l10.28-5.75v18.74l-10.28-5.06v-7.94ZM88.48,98.09l-33.66-17.74-1.73-.91-1.73,.91-15.41,8.12c-.92,.48-1.26,1.62-.76,2.53h0c.49,.89,1.6,1.22,2.49,.75l13.56-7.15v50.32L3.71,109.19V43.92l10.28,5.06v53.42c0,.84,.89,1.38,1.63,.98l8.03-4.23c.92-.48,1.26-1.62,.76-2.53h0c-.49-.89-1.6-1.22-2.49-.75l-4.22,2.22V51.1l35.39,17.6,35.39-17.6v46.99Zm0-51.14l-33.53,16.68v-11.2l33.53-17.04v11.56Zm0-15.72l-33.53,17.04V5.29l33.53,18.74v7.21Z"/>
</svg>