<svg width="1440" height="862" viewBox="0 0 1440 862" fill="none" xmlns="http://www.w3.org/2000/svg">
<g clip-path="url(#clip0_209_2094)">
<g opacity="0.7">
<g filter="url(#filter0_f_209_2094)">
<ellipse cx="1204.48" cy="449.162" rx="682.306" ry="238.446" transform="rotate(-22.1653 1204.48 449.162)" fill="#C58AF8"/>
</g>
<g filter="url(#filter1_f_209_2094)">
<ellipse cx="443.2" cy="316.137" rx="906.814" ry="202.741" transform="rotate(-12.7084 443.2 316.137)" fill="#9AA8FF"/>
</g>
<g opacity="0.46">
<mask id="mask0_209_2094" style="mask-type:alpha" maskUnits="userSpaceOnUse" x="-8" y="80" width="1457" height="911">
<ellipse cx="720.5" cy="535.5" rx="728.5" ry="455.5" fill="white" fill-opacity="0.72"/>
</mask>
<g mask="url(#mask0_209_2094)">
<path d="M-3568.26 2253.7L-1039.82 -3788.8M-3452.06 2302.32L-923.617 -3740.18M-3335.86 2350.95L-807.415 -3691.55M-3219.66 2399.57L-691.213 -3642.93M-3103.45 2448.2L-575.011 -3594.31M-2987.25 2496.82L-458.809 -3545.68M-2871.05 2545.44L-342.607 -3497.06M-2754.85 2594.07L-226.405 -3448.43M-2638.65 2642.69L-110.203 -3399.81M-2522.44 2691.32L5.99887 -3351.19M-2406.24 2739.94L122.201 -3302.56M-2290.04 2788.56L238.403 -3253.94M-2173.84 2837.19L354.605 -3205.31M-2057.64 2885.81L470.807 -3156.69M-1941.43 2934.44L587.009 -3108.07M-1825.23 2983.06L703.211 -3059.44M-1709.03 3031.68L819.413 -3010.82M-1592.83 3080.31L935.615 -2962.2M-1476.63 3128.93L1051.82 -2913.57M-1360.42 3177.55L1168.02 -2864.95M-1244.22 3226.18L1284.22 -2816.32M-1128.02 3274.8L1400.42 -2767.7M-1011.82 3323.43L1516.62 -2719.08M-895.616 3372.05L1632.83 -2670.45M-779.414 3420.67L1749.03 -2621.83M-663.213 3469.3L1865.23 -2573.2M-547.011 3517.92L1981.43 -2524.58M-2305.16 -767.093L3737.35 1761.35M-2353.78 -650.891L3688.72 1877.55M-2402.4 -534.689L3640.1 1993.75M-2451.03 -418.487L3591.47 2109.96M-2499.65 -302.285L3542.85 2226.16M-2548.28 -186.083L3494.23 2342.36M-2596.9 -69.8812L3445.6 2458.56M-2645.52 46.3209L3396.98 2574.76M-2694.15 162.522L3348.35 2690.97M-2742.77 278.725L3299.73 2807.17M-2791.4 394.927L3251.11 2923.37M-2840.02 511.129L3202.48 3039.57M-2888.64 627.331L3153.86 3155.77M-2937.27 743.533L3105.24 3271.98M-2985.89 859.735L3056.61 3388.18M-3034.51 975.936L3007.99 3504.38M-3083.14 1092.14L2959.36 3620.58M-3131.76 1208.34L2910.74 3736.78M-3180.39 1324.54L2862.12 3852.99M-3229.01 1440.74L2813.49 3969.19M-3277.63 1556.95L2764.87 4085.39M-3326.26 1673.15L2716.24 4201.59M-3374.88 1789.35L2667.62 4317.79M-3423.51 1905.55L2619 4434M-3472.13 2021.75L2570.37 4550.2M-3520.75 2137.96L2521.75 4666.4M-3569.38 2254.16L2473.12 4782.6M-1040.93 -3788.34L5001.57 -1259.9M-1089.56 -3672.14L4952.94 -1143.7M-1138.18 -3555.94L4904.32 -1027.5M-1186.81 -3439.74L4855.7 -911.295M-1235.43 -3323.54L4807.07 -795.093M-1284.05 -3207.33L4758.45 -678.891M-1332.68 -3091.13L4709.82 -562.689M-1381.3 -2974.93L4661.2 -446.487M-1429.93 -2858.73L4612.58 -330.285M-1478.55 -2742.53L4563.95 -214.083M-1527.17 -2626.32L4515.33 -97.8814M-1575.8 -2510.12L4466.7 18.3206M-1624.42 -2393.92L4418.08 134.523M-1673.05 -2277.72L4369.46 250.725M-1721.67 -2161.52L4320.83 366.927M-1770.29 -2045.31L4272.21 483.128M-1818.92 -1929.11L4223.59 599.33M-1867.54 -1812.91L4174.96 715.532M-1916.16 -1696.71L4126.34 831.734M-1964.79 -1580.51L4077.71 947.936M-2013.41 -1464.3L4029.09 1064.14M-2062.04 -1348.1L3980.47 1180.34M-2110.66 -1231.9L3931.84 1296.54M-2159.28 -1115.7L3883.22 1412.74M-2207.91 -999.497L3834.59 1528.95M-2256.53 -883.295L3785.97 1645.15M-430.809 3566.55L2097.63 -2475.96M-314.607 3615.17L2213.84 -2427.33M-198.405 3663.79L2330.04 -2378.71M-82.2029 3712.42L2446.24 -2330.08M33.9992 3761.04L2562.44 -2281.46M150.201 3809.67L2678.64 -2232.84M266.403 3858.29L2794.85 -2184.21M382.605 3906.91L2911.05 -2135.59M498.807 3955.54L3027.25 -2086.97M615.009 4004.16L3143.45 -2038.34M731.211 4052.79L3259.65 -1989.72M847.413 4101.41L3375.86 -1941.09M963.615 4150.03L3492.06 -1892.47M1079.82 4198.66L3608.26 -1843.85M1196.02 4247.28L3724.46 -1795.22M1312.22 4295.9L3840.66 -1746.6M1428.42 4344.53L3956.87 -1697.97M1544.62 4393.15L4073.07 -1649.35M1660.83 4441.78L4189.27 -1600.73M1777.03 4490.4L4305.47 -1552.1M1893.23 4539.02L4421.67 -1503.48M2009.43 4587.65L4537.88 -1454.85M2125.63 4636.27L4654.08 -1406.23M2241.84 4684.9L4770.28 -1357.61M2358.04 4733.52L4886.48 -1308.98M2474.24 4782.14L5002.68 -1260.36" stroke="white" stroke-opacity="0.7" stroke-width="3.412"/>
</g>
</g>
</g>
</g>
<defs>
<filter id="filter0_f_209_2094" x="66.1445" y="-390.002" width="2276.67" height="1678.33" filterUnits="userSpaceOnUse" color-interpolation-filters="sRGB">
<feFlood flood-opacity="0" result="BackgroundImageFix"/>
<feBlend mode="normal" in="SourceGraphic" in2="BackgroundImageFix" result="shape"/>
<feGaussianBlur stdDeviation="250" result="effect1_foregroundBlur_209_2094"/>
</filter>
<filter id="filter1_f_209_2094" x="-942.543" y="-464.773" width="2771.49" height="1561.82" filterUnits="userSpaceOnUse" color-interpolation-filters="sRGB">
<feFlood flood-opacity="0" result="BackgroundImageFix"/>
<feBlend mode="normal" in="SourceGraphic" in2="BackgroundImageFix" result="shape"/>
<feGaussianBlur stdDeviation="250" result="effect1_foregroundBlur_209_2094"/>
</filter>
<clipPath id="clip0_209_2094">
<rect width="1440" height="862" fill="white"/>
</clipPath>
</defs>
</svg>
